<svg xmlns="http://www.w3.org/2000/svg"  width="100vw"  viewBox="0 0 1920 400">
  <!-- <defs>
    <linearGradient id="mountainGradient" x1="0%" y1="0%" x2="0%" y2="100%">
      <stop offset="0%" style="stop-color:#000;stop-opacity:1" />
      <stop offset="100%" style="stop-color:#fff;stop-opacity:1" />
    </linearGradient>
  </defs> -->
  <!-- Mountain Range -->
  <polygon points="0,400 0,240 100,180 220,270 360,170 500,250 650,200 800,290 960,160 1120,280 1280,190 1440,240 1600,160 1760,220 1920,240 1920,400" fill="#b1b1b1" />
  <polygon points="400,400 320,240 420,190 560,280 700,180 840,260 1000,200 1140,290 1300,190 1440,260 1600,180 1740,240 1840,160 1920,220 1920,400" fill="#b1b1b1" />
  <polygon points="800,400 720,240 820,190 960,280 1100,180 1240,260 1380,200 1520,290 1660,190 1780,260 1920,220 1920,400" fill="#b1b1b1" />
</svg> 

