<svg xmlns="http://www.w3.org/2000/svg" width="100%" viewBox="0 0 1920 600">
  <polygon points="0,600 0,400 100,500 280,340 500,500 720,400 900,550 1120,380 1360,600 1520,420 1760,500 1920,600 1920,600" fill="#696969" />
  <polygon points="600,600 400,420 600,500 820,340 1040,500 1260,400 1480,550 1600,380 1800,600 1920,500 1920,600 1920,600" fill="#696969" />
  <polygon points="1000,600 800,480 1000,550 1220,420 1440,600 1660,400 1800,550 1920,480 1920,600 1920,600" fill="#696969" />
  <polygon points="1400,600 1200,480 1400,550 1600,420 1800,600 1920,480 1920,600 1920,600" fill="#696969" />
  <polygon points="1800,600 1600,500 1800,550 1920,420 1920,600 1920,600" fill="#696969" />
</svg>
